<?xml version="1.0" standalone="no"?>
<!DOCTYPE svg PUBLIC "-//W3C//DTD SVG 20010904//EN"
 "http://www.w3.org/TR/2001/REC-SVG-20010904/DTD/svg10.dtd">
<svg version="1.0" xmlns="http://www.w3.org/2000/svg"
 width="64.000000pt" height="82.000000pt" viewBox="0 0 64.000000 82.000000"
 preserveAspectRatio="xMidYMid meet">
<metadata>
Created by potrace 1.16, written by Peter Selinger 2001-2019
</metadata>
<g transform="translate(0.000000,82.000000) scale(0.100000,-0.100000)"
fill="#000000" stroke="none">
<path d="M40 640 c0 -173 -1 -180 -20 -180 -30 0 -24 -28 14 -66 l34 -34 251
0 250 0 36 31 c39 35 47 69 15 69 -19 0 -20 7 -20 180 l0 180 -46 0 c-46 0
-46 0 -42 -30 l5 -30 -194 0 -193 0 0 30 c0 29 -2 30 -45 30 l-45 0 0 -180z
m475 -125 l0 -45 -192 0 -193 0 0 45 0 45 193 0 192 0 0 -45z"/>
<path d="M120 330 c0 -3 29 -27 65 -55 35 -27 65 -52 65 -55 0 -3 -43 -39 -94
-80 -52 -41 -95 -80 -95 -86 -1 -6 10 -21 24 -34 l24 -23 33 25 c18 14 65 51
103 82 39 31 73 56 76 56 4 0 51 -36 105 -80 54 -44 101 -80 104 -80 4 0 19
14 36 31 18 20 25 33 17 36 -16 6 -187 142 -190 151 -1 4 27 29 62 57 62 47
83 74 49 61 -9 -3 -38 -6 -64 -6 -40 0 -56 -5 -83 -30 l-34 -29 -34 28 c-28
23 -46 29 -102 33 -37 2 -67 1 -67 -2z"/>
</g>
</svg>
