<?xml version="1.0" standalone="no"?>
<!DOCTYPE svg PUBLIC "-//W3C//DTD SVG 20010904//EN"
 "http://www.w3.org/TR/2001/REC-SVG-20010904/DTD/svg10.dtd">
<svg version="1.0" xmlns="http://www.w3.org/2000/svg"
 width="75.000000pt" height="75.000000pt" viewBox="0 0 75.000000 75.000000"
 preserveAspectRatio="xMidYMid meet">

<g transform="translate(0.000000,75.000000) scale(0.100000,-0.100000)"
fill="#464646" stroke="none">
<path d="M7 743 c-4 -3 -7 -66 -7 -140 l0 -133 30 0 30 0 0 99 c0 69 4 102 13
109 7 6 58 13 113 14 104 3 101 2 95 48 -1 11 -263 14 -274 3z"/>
<path d="M470 720 l0 -30 94 0 c52 0 101 -3 110 -6 13 -5 16 -25 16 -110 l0
-104 30 0 31 0 -3 138 -3 137 -137 3 -138 3 0 -31z"/>
<path d="M320 639 c-40 -16 -80 -60 -91 -101 -15 -57 -2 -105 41 -148 l38 -38
-21 -19 c-12 -11 -35 -27 -50 -37 -44 -27 -67 -73 -67 -133 l0 -53 205 0 205
0 0 53 c0 60 -23 106 -67 133 -15 10 -38 26 -50 37 l-21 19 34 30 c62 55 69
146 17 209 -44 52 -113 71 -173 48z"/>
<path d="M2 143 l3 -138 136 -3 137 -3 4 25 c3 14 3 28 0 31 -3 3 -51 5 -108
5 -84 0 -103 3 -108 16 -3 9 -6 58 -6 110 l0 94 -30 0 -31 0 3 -137z"/>
<path d="M688 173 l-3 -108 -107 -3 -108 -3 0 -29 0 -30 140 0 140 0 0 140 0
140 -30 0 -29 0 -3 -107z"/>
</g>
</svg>
