<?xml version="1.0" standalone="no"?>
<!DOCTYPE svg PUBLIC "-//W3C//DTD SVG 20010904//EN"
 "http://www.w3.org/TR/2001/REC-SVG-20010904/DTD/svg10.dtd">
<svg version="1.0" xmlns="http://www.w3.org/2000/svg"
 width="37.000000pt" height="37.000000pt" viewBox="0 0 37.000000 37.000000"
 preserveAspectRatio="xMidYMid meet">

<g transform="translate(0.000000,37.000000) scale(0.100000,-0.100000)"
fill="#000000" stroke="none">
<path d="M102 349 c-65 -33 -97 -87 -97 -164 0 -50 5 -69 27 -102 60 -92 198
-109 282 -35 28 26 56 92 56 137 0 136 -147 226 -268 164z m138 -74 c0 -18 -5
-25 -20 -25 -11 0 -20 -5 -20 -11 0 -6 9 -13 20 -16 11 -3 20 -14 20 -25 0
-11 -9 -22 -20 -25 -17 -5 -20 -14 -20 -65 0 -59 0 -59 -27 -56 -27 3 -28 5
-28 58 0 33 -5 58 -12 63 -16 10 -17 44 -1 49 6 2 13 15 15 28 5 36 22 50 59
50 30 0 34 -3 34 -25z"/>
</g>
</svg>
