<?xml version="1.0" standalone="no"?>
<!DOCTYPE svg PUBLIC "-//W3C//DTD SVG 20010904//EN"
 "http://www.w3.org/TR/2001/REC-SVG-20010904/DTD/svg10.dtd">
<svg version="1.0" xmlns="http://www.w3.org/2000/svg"
 width="20.000000pt" height="43.000000pt" viewBox="0 0 20.000000 43.000000"
 preserveAspectRatio="xMidYMid meet">

<g transform="translate(0.000000,43.000000) scale(0.100000,-0.100000)"
fill="white" stroke="none">
<path d="M88 414 c-28 -15 -36 -32 -40 -94 -2 -28 -8 -36 -26 -38 -17 -3 -22
-10 -22 -32 0 -22 5 -29 22 -32 22 -3 23 -8 26 -110 l3 -108 39 0 40 0 0 109
0 110 33 3 c27 2 33 8 35 31 3 25 1 27 -32 27 -34 0 -36 2 -36 34 0 35 13 46
51 46 15 0 19 7 19 35 0 35 -1 35 -42 35 -24 -1 -55 -7 -70 -16z"/>
</g>
</svg>
