<?xml version="1.0" standalone="no"?>
<!DOCTYPE svg PUBLIC "-//W3C//DTD SVG 20010904//EN"
 "http://www.w3.org/TR/2001/REC-SVG-20010904/DTD/svg10.dtd">
<svg version="1.0" xmlns="http://www.w3.org/2000/svg"
 width="83.000000pt" height="64.000000pt" viewBox="0 0 83.000000 64.000000"
 preserveAspectRatio="xMidYMid meet">

<g transform="translate(0.000000,64.000000) scale(0.100000,-0.100000)"
fill="#464646"  stroke="none">
<path d="M185 595 l-99 -43 -43 -128 c-24 -71 -43 -132 -43 -137 0 -4 39 -6
87 -5 l86 3 15 43 c7 23 17 42 20 42 4 0 6 -73 4 -161 -2 -89 -1 -173 3 -186
l5 -23 198 2 197 3 5 185 5 185 18 -39 c9 -21 17 -42 17 -47 0 -5 38 -9 85 -9
60 0 85 4 85 12 0 23 -72 243 -84 255 -17 18 -202 93 -229 93 -19 0 -26 -8
-35 -38 -31 -101 -102 -90 -136 21 -8 27 -51 20 -161 -28z m175 -227 c0 -21
-1 -21 -14 -3 -8 11 -19 16 -30 12 -26 -10 -18 -34 19 -56 55 -32 40 -86 -22
-79 -22 2 -29 9 -30 28 l-3 25 12 -23 c7 -15 19 -22 32 -20 35 5 30 34 -9 56
-53 32 -43 82 17 82 22 0 28 -5 28 -22z m160 0 c-1 -21 -2 -21 -11 -5 -22 37
-79 3 -79 -48 0 -32 28 -65 56 -65 26 0 33 27 12 48 -9 9 -6 12 13 12 23 0 25
-3 21 -30 -7 -51 -87 -55 -110 -5 -17 37 -15 59 9 89 28 35 89 38 89 4z"/>
</g>
</svg>
