<?xml version="1.0" standalone="no"?>
<!DOCTYPE svg PUBLIC "-//W3C//DTD SVG 20010904//EN"
 "http://www.w3.org/TR/2001/REC-SVG-20010904/DTD/svg10.dtd">
<svg version="1.0" xmlns="http://www.w3.org/2000/svg"
 width="43.000000pt" height="43.000000pt" viewBox="0 0 43.000000 43.000000"
 preserveAspectRatio="xMidYMid meet">

<g transform="translate(0.000000,43.000000) scale(0.100000,-0.100000)"
fill="rgb(192, 57, 43)" stroke="none">
<path d="M65 409 c-52 -33 -65 -70 -65 -192 0 -126 12 -164 63 -195 30 -19 49
-22 152 -22 112 0 120 1 153 26 49 38 62 77 62 189 0 112 -13 151 -62 189 -33
25 -40 26 -154 25 -99 0 -124 -4 -149 -20z m296 -48 c29 -29 29 -31 29 -146 0
-115 0 -117 -29 -146 -29 -29 -30 -29 -149 -29 -113 0 -121 1 -146 25 -25 24
-26 27 -26 149 l0 124 31 26 c29 25 36 26 146 26 113 0 115 0 144 -29z"/>
<path d="M311 337 c-14 -17 3 -41 23 -34 9 4 16 13 16 21 0 19 -26 28 -39 13z"/>
<path d="M165 308 c-37 -20 -55 -52 -55 -96 0 -83 81 -128 159 -88 49 26 65
94 34 146 -27 46 -91 64 -138 38z m83 -34 c51 -35 46 -101 -7 -124 -81 -33
-140 83 -63 124 35 19 43 19 70 0z"/>
</g>
</svg>
