<?xml version="1.0" standalone="no"?>
<!DOCTYPE svg PUBLIC "-//W3C//DTD SVG 20010904//EN"
 "http://www.w3.org/TR/2001/REC-SVG-20010904/DTD/svg10.dtd">
<svg version="1.0" xmlns="http://www.w3.org/2000/svg"
 width="73.000000pt" height="63.000000pt" viewBox="0 0 73.000000 63.000000"
 preserveAspectRatio="xMidYMid meet">
<metadata>
Created by potrace 1.16, written by Peter Selinger 2001-2019
</metadata>
<g transform="translate(0.000000,63.000000) scale(0.100000,-0.100000)"
fill="#000000" stroke="none">
<path d="M470 602 c-17 -18 -30 -41 -30 -55 0 -18 -10 -31 -35 -45 -54 -32
-57 -101 -5 -115 17 -4 20 0 20 23 0 16 3 36 6 45 5 13 10 10 25 -15 11 -17
29 -35 42 -40 15 -6 17 -9 5 -9 -9 -1 -40 -30 -69 -66 -29 -36 -55 -65 -58
-64 -3 0 -28 29 -56 64 l-50 64 -65 1 c-66 0 -66 0 -111 -47 -94 -101 -95
-101 -76 -120 15 -15 19 -14 61 21 l46 37 0 -75 c0 -44 4 -76 10 -76 6 0 10
-25 10 -55 0 -30 -4 -55 -10 -55 -5 0 -10 -4 -10 -10 0 -5 16 -10 35 -10 l34
0 4 68 3 67 2 -67 2 -68 35 0 c19 0 35 5 35 10 0 6 -4 10 -10 10 -5 0 -10 25
-10 55 0 43 3 55 16 55 13 0 15 12 12 75 l-3 74 35 -34 c51 -49 78 -47 129 12
54 63 54 34 1 -53 -22 -36 -40 -68 -40 -70 0 -2 21 -4 48 -4 l47 0 0 -55 c0
-30 -3 -55 -7 -55 -5 0 -8 -4 -8 -10 0 -5 16 -10 35 -10 l34 0 4 68 3 67 2
-67 c2 -67 2 -68 30 -68 l28 0 -4 65 -4 65 36 0 c20 0 36 2 36 5 0 3 -16 37
-36 76 -42 85 -43 122 0 61 22 -33 35 -42 57 -42 27 0 42 23 21 32 -4 2 -29
31 -55 66 -27 34 -56 62 -65 62 -12 1 -9 5 10 15 15 8 30 24 33 35 9 30 25 14
25 -25 0 -33 1 -34 30 -24 25 9 30 16 30 45 0 26 -7 39 -35 61 -19 15 -35 36
-35 45 0 10 -13 32 -28 49 -23 26 -38 33 -80 37 -47 4 -54 2 -82 -26z"/>
<path d="M120 578 c-32 -22 -35 -28 -31 -64 7 -78 40 -114 106 -114 52 0 90
40 98 105 9 64 -8 82 -83 91 -48 5 -60 3 -90 -18z"/>
</g>
</svg>
