<?xml version="1.0" standalone="no"?>
<!DOCTYPE svg PUBLIC "-//W3C//DTD SVG 20010904//EN"
 "http://www.w3.org/TR/2001/REC-SVG-20010904/DTD/svg10.dtd">
<svg version="1.0" xmlns="http://www.w3.org/2000/svg"
 width="56.000000pt" height="74.000000pt" viewBox="0 0 56.000000 74.000000"
 preserveAspectRatio="xMidYMid meet">

<g transform="translate(0.000000,74.000000) scale(0.100000,-0.100000)"
fill="#000000" stroke="none">
<path d="M172 728 c-15 -15 -16 -63 -1 -90 13 -23 2 -39 -12 -18 -8 12 -9 11
-7 -5 2 -12 11 -20 23 -20 17 0 19 5 16 35 -7 66 -6 83 6 87 8 3 10 -9 6 -39
l-4 -43 20 23 c19 22 20 22 58 5 52 -24 51 -22 24 -44 -13 -10 -19 -19 -14
-19 19 0 43 37 43 67 0 41 -29 65 -74 62 -19 -2 -38 0 -42 4 -11 11 -28 9 -42
-5z"/>
<path d="M13 603 c-8 -21 56 -141 79 -149 9 -3 29 2 43 12 29 19 31 12 15 -46
-6 -22 -34 -59 -75 -100 -36 -35 -65 -68 -65 -72 0 -4 18 -8 41 -8 29 0 40 -4
36 -12 -3 -7 -22 -52 -42 -100 -31 -72 -36 -90 -25 -103 29 -35 46 -18 96 100
41 99 51 115 71 115 21 0 23 -5 23 -49 0 -42 6 -57 43 -107 52 -71 72 -88 92
-80 23 9 18 29 -24 92 -21 33 -41 78 -45 102 l-6 42 40 0 40 0 -36 71 -35 71
27 64 27 64 102 0 c108 0 131 9 123 47 -3 16 -18 19 -133 23 -127 5 -131 5
-157 -19 l-28 -25 0 22 c0 35 -24 36 -76 3 l-49 -30 -27 45 c-29 46 -63 59
-75 27z"/>
</g>
</svg>
