<?xml version="1.0" standalone="no"?>
<!DOCTYPE svg PUBLIC "-//W3C//DTD SVG 20010904//EN"
 "http://www.w3.org/TR/2001/REC-SVG-20010904/DTD/svg10.dtd">
<svg version="1.0" xmlns="http://www.w3.org/2000/svg"
 width="52.000000pt" height="82.000000pt" viewBox="0 0 52.000000 82.000000"
 preserveAspectRatio="xMidYMid meet">

<g transform="translate(0.000000,82.000000) scale(0.100000,-0.100000)"
fill="#000000" stroke="none">
<path d="M175 804 c-55 -19 -109 -66 -142 -122 -22 -38 -28 -61 -31 -132 l-4
-87 132 -87 133 -87 128 85 129 86 0 78 c0 56 -6 89 -21 122 -56 125 -199 189
-324 144z m135 -34 c0 -5 -4 -10 -9 -10 -5 0 -11 -9 -14 -21 -4 -16 1 -24 26
-34 35 -15 69 -48 112 -113 l28 -42 -20 -23 c-11 -12 -28 -35 -37 -52 -28 -47
-64 -69 -126 -73 -66 -5 -105 17 -156 88 -35 49 -43 87 -19 96 8 4 15 12 15
19 0 20 48 74 81 91 16 8 29 21 29 29 0 7 12 23 26 34 28 22 64 28 64 11z"/>
<path d="M180 570 c0 -5 7 -10 15 -10 8 0 15 5 15 10 0 6 -7 10 -15 10 -8 0
-15 -4 -15 -10z"/>
<path d="M315 570 c-3 -5 1 -10 9 -10 9 0 16 5 16 10 0 6 -4 10 -9 10 -6 0
-13 -4 -16 -10z"/>
<path d="M195 500 c-36 -40 -3 -77 66 -76 70 1 104 43 63 77 -25 20 -110 20
-129 -1z m110 -30 c0 -18 -72 -27 -87 -12 -19 19 3 33 45 30 29 -2 42 -8 42
-18z"/>
<path d="M2 279 c3 -70 10 -104 25 -134 66 -125 215 -179 338 -121 46 21 84
52 74 60 -2 1 -92 60 -199 131 -107 70 -206 135 -219 143 l-24 16 5 -95z"/>
<path d="M422 305 l-93 -62 81 -52 c44 -28 82 -51 84 -51 12 0 27 96 24 156
l-3 71 -93 -62z"/>
</g>
</svg>
