<?xml version="1.0" standalone="no"?>
<!DOCTYPE svg PUBLIC "-//W3C//DTD SVG 20010904//EN"
 "http://www.w3.org/TR/2001/REC-SVG-20010904/DTD/svg10.dtd">
<svg version="1.0" xmlns="http://www.w3.org/2000/svg"
 width="80.000000pt" height="76.000000pt" viewBox="0 0 80.000000 76.000000"
 preserveAspectRatio="xMidYMid meet">

<g transform="translate(0.000000,76.000000) scale(0.100000,-0.100000)"
fill="#000000" stroke="none">
<path d="M240 740 c-27 -27 -23 -67 11 -92 31 -24 73 -11 91 27 10 22 8 30 -9
53 -26 35 -65 40 -93 12z"/>
<path d="M523 741 c-32 -20 -39 -37 -58 -131 -7 -30 -6 -33 8 -22 8 7 18 33
22 59 18 123 129 122 155 -2 14 -67 36 -88 25 -24 -9 55 -27 100 -47 116 -28
24 -71 25 -105 4z"/>
<path d="M526 698 c-21 -29 -20 -51 2 -71 38 -35 102 -12 102 37 0 52 -75 76
-104 34z"/>
<path d="M278 623 c-38 -6 -36 -30 2 -29 21 1 30 6 30 19 0 9 -1 16 -2 16 -2
-1 -15 -4 -30 -6z"/>
<path d="M147 581 c-14 -17 -27 -36 -30 -43 -3 -9 -16 -2 -39 20 -37 35 -65
41 -75 16 -8 -22 99 -129 121 -121 8 3 28 25 43 49 l28 43 5 -270 c3 -149 7
-271 8 -272 1 -2 15 -3 32 -3 25 0 30 4 35 34 4 18 5 90 3 160 -1 69 0 126 5
126 4 0 7 -65 7 -144 0 -79 3 -151 6 -160 7 -19 49 -21 61 -3 4 6 6 128 4 270
-2 178 0 257 8 257 7 0 11 -44 13 -122 3 -117 4 -123 25 -126 17 -2 24 5 34
32 7 20 14 34 16 33 1 -2 -6 -55 -17 -118 -25 -146 -25 -175 -1 -189 11 -5 29
-10 40 -10 12 0 20 -3 20 -7 -4 -24 4 -33 27 -33 17 0 28 6 31 20 7 26 19 26
26 0 7 -27 57 -28 64 -1 3 11 17 21 33 25 16 3 33 13 38 23 15 27 -24 266 -53
331 -13 28 -20 52 -16 52 5 0 11 -7 15 -15 8 -23 36 -18 89 15 48 30 60 56 31
67 -13 5 -33 -2 -75 -24 -3 -2 -13 15 -23 38 -22 50 -53 65 -79 38 -23 -24
-49 -24 -71 0 -25 27 -60 10 -80 -38 l-15 -36 0 31 c-1 47 -36 86 -74 82 -29
-3 -33 -9 -57 -72 l-27 -69 -25 69 c-23 63 -28 69 -55 72 -24 2 -36 -4 -56
-27z m198 -61 c3 -5 -1 -10 -9 -10 -9 0 -16 5 -16 10 0 6 4 10 9 10 6 0 13 -4
16 -10z m280 -40 c0 -23 -4 -25 -53 -28 -40 -2 -54 1 -58 12 -13 33 3 45 58
43 49 -2 53 -4 53 -27z m-125 -38 c0 -5 -7 -17 -16 -28 -14 -17 -15 -17 -10
-1 3 10 6 23 6 28 0 5 5 9 10 9 6 0 10 -4 10 -8z m144 -49 c17 -38 56 -244 56
-295 l0 -28 -130 0 c-117 0 -130 2 -130 18 0 40 40 261 54 292 20 48 23 50 81
50 50 0 52 -1 69 -37z"/>
<path d="M550 580 c0 -5 9 -10 20 -10 11 0 20 5 20 10 0 6 -9 10 -20 10 -11 0
-20 -4 -20 -10z"/>
</g>
</svg>
