<?xml version="1.0" standalone="no"?>
<!DOCTYPE svg PUBLIC "-//W3C//DTD SVG 20010904//EN"
 "http://www.w3.org/TR/2001/REC-SVG-20010904/DTD/svg10.dtd">
<svg version="1.0" xmlns="http://www.w3.org/2000/svg"
 width="86.000000pt" height="79.000000pt" viewBox="0 0 86.000000 79.000000"
 preserveAspectRatio="xMidYMid meet">

<g transform="translate(0.000000,79.000000) scale(0.100000,-0.100000)"
fill="#464646" stroke="none">
<path d="M162 765 c-55 -24 -98 -63 -128 -117 -38 -70 -41 -169 -5 -238 27
-53 377 -410 401 -410 9 0 102 87 207 193 204 206 223 235 223 332 0 102 -69
204 -163 240 -69 26 -171 18 -227 -18 -38 -26 -43 -27 -59 -13 -49 44 -180 61
-249 31z m165 -30 c27 -8 58 -24 68 -35 19 -21 50 -26 60 -10 14 22 22 8 15
-25 -7 -32 -35 -85 -44 -85 -2 0 -3 12 -3 26 0 40 -19 51 -45 27 -13 -11 -38
-28 -55 -37 -18 -9 -40 -28 -50 -42 -17 -27 -17 -27 15 -138 5 -19 5 -19 -27
0 -33 19 -33 20 -27 74 11 92 11 103 0 107 -15 5 -33 -48 -41 -117 -4 -40 1
-79 16 -139 12 -46 19 -86 16 -89 -3 -3 -18 7 -34 22 -23 22 -30 39 -36 94 -4
37 -8 91 -8 120 0 37 -4 52 -14 52 -27 0 -35 -50 -19 -120 8 -36 12 -67 10
-69 -8 -9 -34 23 -59 72 -47 96 -27 200 55 269 64 55 124 68 207 43z m339 0
c127 -38 193 -189 134 -309 -11 -24 -92 -113 -194 -216 l-175 -174 -31 29
c-38 37 -38 45 4 45 38 0 54 15 67 62 24 95 36 124 54 140 20 16 20 17 -11 55
-63 79 -66 99 -29 218 14 44 25 94 25 112 0 28 5 34 33 42 46 13 67 13 123 -4z
m-281 -167 c-12 -39 -11 -43 17 -41 25 1 27 -1 22 -27 -8 -37 11 -92 44 -131
l26 -31 -22 -17 c-15 -11 -20 -23 -16 -37 4 -16 0 -23 -14 -26 -17 -5 -19 -12
-14 -53 6 -55 -3 -65 -61 -65 -31 0 -46 7 -74 35 -19 19 -32 39 -28 44 3 6 -1
42 -10 82 -8 40 -13 75 -11 77 9 8 24 -8 41 -43 22 -49 39 -39 43 24 3 43 5
51 17 41 21 -17 69 -8 73 14 5 25 -16 46 -27 27 -5 -8 -18 -12 -30 -8 -12 3
-24 0 -28 -6 -8 -13 -31 47 -32 85 -1 21 8 33 37 52 47 31 55 32 47 4z"/>
</g>
</svg>
