
<svg version="1.0" xmlns="http://www.w3.org/2000/svg"
 width="70.000000pt" height="82.000000pt" viewBox="0 0 70.000000 82.000000"
 preserveAspectRatio="xMidYMid meet">

<g transform="translate(0.000000,82.000000) scale(0.100000,-0.100000)"
fill="#000000" stroke="none">
<path d="M238 801 c-111 -36 -188 -102 -225 -188 -19 -47 -11 -118 21 -182 13
-25 27 -66 31 -91 9 -54 20 -70 50 -70 38 0 48 23 40 88 -12 90 -11 180 1 192
16 16 64 -9 137 -72 l57 -49 58 49 c72 63 120 88 136 72 7 -7 11 -58 11 -143
l0 -132 35 0 c34 0 35 1 46 55 5 30 20 77 33 103 12 27 25 72 28 102 5 45 1
60 -23 106 -75 137 -279 212 -436 160z m194 -60 c6 -20 5 -53 -2 -85 -10 -51
-67 -176 -80 -176 -6 0 -46 82 -74 153 -8 20 -20 37 -25 37 -16 0 -13 -45 3
-85 8 -19 14 -35 13 -35 -1 0 -24 11 -51 25 -27 14 -55 25 -62 25 -20 0 -48
-72 -48 -120 1 -25 5 -74 9 -109 6 -48 5 -62 -3 -57 -7 4 -12 20 -12 37 0 16
-12 52 -27 81 -62 118 -35 215 79 289 34 21 65 39 70 39 4 0 8 -16 8 -36 0
-28 3 -35 18 -32 11 2 18 14 20 33 5 55 7 56 84 53 l72 -3 8 -34z m81 3 c140
-72 181 -181 117 -309 -16 -33 -30 -75 -30 -92 0 -18 -5 -33 -11 -33 -8 0 -9
17 -4 58 13 97 10 165 -8 200 -21 39 -29 39 -93 7 -27 -14 -50 -25 -51 -25 0
0 7 23 18 50 10 28 19 75 19 105 0 30 2 55 5 55 4 0 20 -7 38 -16z"/>
<path d="M193 228 c19 -117 95 -228 155 -228 44 0 94 47 127 121 31 70 44 139
26 139 -15 0 -87 -36 -123 -62 -28 -19 -28 -19 -55 0 -37 26 -109 62 -124 62
-8 0 -10 -11 -6 -32z m137 -76 c23 -13 28 -12 79 22 30 20 56 35 58 33 2 -3
-2 -16 -8 -31 -14 -30 -66 -66 -97 -66 -25 0 -38 -18 -23 -33 7 -7 21 -7 47 1
l36 11 -23 -25 c-26 -28 -64 -31 -91 -8 -17 16 -17 18 0 30 15 11 13 16 -24
48 -23 19 -44 45 -47 56 -5 21 -5 21 31 -1 20 -12 48 -29 62 -37z"/>
</g>
</svg>
