<!-- <?xml version="1.0" standalone="no"?>
<!DOCTYPE svg PUBLIC "-//W3C//DTD SVG 20010904//EN"
 "http://www.w3.org/TR/2001/REC-SVG-20010904/DTD/svg10.dtd"> -->
<svg version="1.0" xmlns="http://www.w3.org/2000/svg"
 width="74.000000pt" height="41.000000pt" viewBox="0 0 74.000000 41.000000"
 preserveAspectRatio="xMidYMid meet">

<g transform="translate(0.000000,41.000000) scale(0.100000,-0.100000)"
fill="rgb(192, 57, 43)" stroke="none">
<path d="M256 402 c-3 -5 4 -16 15 -25 15 -13 19 -30 19 -76 0 -33 -3 -66 -6
-75 -15 -40 -58 1 -109 104 -15 30 -33 58 -39 62 -17 11 -124 9 -131 -2 -9
-14 55 -144 116 -234 74 -111 150 -159 244 -154 l60 3 6 39 c10 61 27 62 84 6
l51 -50 82 0 c75 0 82 2 82 20 0 18 -32 61 -93 122 -16 16 -27 34 -24 41 2 7
30 48 61 91 35 49 56 88 54 100 -3 19 -10 21 -78 21 l-75 0 -38 -70 c-42 -78
-79 -121 -96 -111 -6 4 -11 38 -11 79 0 118 1 117 -91 117 -43 0 -80 -4 -83
-8z"/>
</g>
</svg>
